# xmcd
#
# Track frame offsets:
#	150
#	24038
#	43951
#	64051
#	84076
#	100876
#	127651
#	149964
#	171602
#	190352
#	207565
#	231528
#	251441
#	271504
#	291567
#	318380
#
# Disc length: 4540 seconds
#
# Revision: 0
# Processed by: cddbd v1.5.2PL0 Copyright (c) Steve Scherf et al.
# Submitted via: EasyCDDAExtractor 2010.6.0.0
#
DISCID=f211ba10
DTITLE=Benedita Ramos - Trofeu De Vitoria
DYEAR=2010
DGENRE=Gospel
TTITLE0=Soldado Ferido
TTITLE1=Quando Ele Chega, Tem Vitoria
TTITLE2=O Arrebatamento
TTITLE3=Trofeu De Vitoria
TTITLE4=O Varao
TTITLE5=Voz Da Pregacao
TTITLE6=Pra Voce Vencer
TTITLE7=Leao Da Tribo De Juda
TTITLE8=Clame A Ele
TTITLE9=Um Grande Amigo
TTITLE10=Soldado Ferido (Pb)
TTITLE11=Quando Ele Chega, Tem Vitoria (Pb)
TTITLE12=O Arrebatamento (Pb)
TTITLE13=Trofeu De Vitoria (Pb)
TTITLE14=O Varao (Pb)
TTITLE15=Voz Da Pregacao (Pb)
EXTD=
EXTT0=
EXTT1=
EXTT2=
EXTT3=
EXTT4=
EXTT5=
EXTT6=
EXTT7=
EXTT8=
EXTT9=
EXTT10=
EXTT11=
EXTT12=
EXTT13=
EXTT14=
EXTT15=
PLAYORDER=
